<svg width="65" height="65" viewBox="0 0 65 65" fill="none" xmlns="http://www.w3.org/2000/svg">
<path d="M35.3626 34.948L35.9746 38.332L25.6786 40.06L22.5826 46.864L19.4866 45.496L31.4746 19.288L34.5706 19.252L45.5146 42.256L42.4546 43.732L33.0226 24.004L27.4066 36.316L35.3626 34.948Z" fill="#FF2222"/>
<path opacity="0.79" d="M32.5 0C50.4493 0 65 14.5507 65 32.5C65 50.4493 50.4493 65 32.5 65C14.5507 65 0 50.4493 0 32.5C0 14.5507 14.5507 0 32.5 0ZM32.5 6C17.8645 6 6 17.8645 6 32.5C6 47.1355 17.8645 59 32.5 59C47.1355 59 59 47.1355 59 32.5C59 17.8645 47.1355 6 32.5 6Z" fill="#FF0000"/>
</svg>
