<svg width="122" height="100" viewBox="0 0 122 100" fill="none" xmlns="http://www.w3.org/2000/svg">
<path d="M63.5447 67.6142L64.0887 70.6222L54.9367 72.1582L52.1847 78.2062L49.4327 76.9902L60.0887 53.6942L62.8407 53.6622L72.5687 74.1102L69.8487 75.4222L61.4647 57.8862L56.4727 68.8302L63.5447 67.6142Z" fill="#FF2222"/>
<path d="M88.7283 48H33.2732L61.0007 0L88.7283 48ZM43.6716 42H78.3298L61.0007 12L43.6716 42Z" fill="#FF2222"/>
<path d="M59.1514 100.001H0L29.5752 52.0007L59.1514 100.001ZM11.0908 94.0007H48.0605L29.5762 64.0007L11.0908 94.0007Z" fill="#FF2222"/>
<path d="M122.001 100.001H62.8492L92.4244 52.0007L122.001 100.001ZM73.94 94.0007H110.91L92.4254 64.0007L73.94 94.0007Z" fill="#FF2222"/>
</svg>
