<svg width="351" height="116" viewBox="0 0 351 116" fill="none" xmlns="http://www.w3.org/2000/svg">

<defs>
    <animate id="breathingOpacity" attributeName="opacity" values="1;0.9;1" keyTimes="0;0.5;1" dur="4s" repeatCount="indefinite"/>
    
    <!-- 上三角形流光（TopDown） -->
    <linearGradient id="flow_TopDown" x1="0.5" y1="-0.1" x2="0.5" y2="1">
<stop offset="0" stop-color="#4B0082"/>
<stop offset="0.4" stop-color="#8A2BE2"/>
<stop offset="0.5" stop-color="#FF1493"/>
<stop offset="0.6" stop-color="#FF1493"/>
<stop offset="0.7" stop-color="#8A2BE2"/>
<stop offset="1" stop-color="#4B0082"/>
<!-- 上三角形流光 -->
<animateTransform 
    attributeName="gradientTransform" 
    type="translate" 
    values="0 -1; 0 0.5; 0 0.5; 0 -1" 
    keyTimes="0; 0.4; 0.6; 1" 
    dur="5s"
    keySplines="0.2 0.8 0.4 1; 0 0 1 1; 0.2 0.8 0.4 1"
    calcMode="spline"
    repeatCount="indefinite"/>
    </linearGradient>

    <!-- 左对角线流光（Diagonal Left） -->
    <linearGradient id="flow_Diagonal_Left" x1="-0.1" y1="0.55" x2="1" y2="0">
<stop offset="0" stop-color="#4B0082"/>
<stop offset="0.4" stop-color="#8A2BE2"/>
<stop offset="0.5" stop-color="#FF1493"/>
<stop offset="0.6" stop-color="#FF1493"/>
<stop offset="0.7" stop-color="#8A2BE2"/>
<stop offset="1" stop-color="#4B0082"/>
<animateTransform 
    attributeName="gradientTransform" 
    type="translate" 
    values="0 3; 0 -0.25; 0 -0.25; 0 3" 
    keyTimes="0; 0.4; 0.6; 1" 
    dur="5s"
    keySplines="0.2 0.8 0.4 1; 0 0 1 1; 0.2 0.8 0.4 1"
    calcMode="spline"
    repeatCount="indefinite"/>
    </linearGradient>

    <!-- 右对角线流光（Diagonal Right） -->
    <linearGradient id="flow_Diagonal_Right" x1="1.1" y1="0.55" x2="0" y2="0">
<stop offset="0" stop-color="#4B0082"/>
<stop offset="0.4" stop-color="#8A2BE2"/>
<stop offset="0.5" stop-color="#FF1493"/>
<stop offset="0.6" stop-color="#FF1493"/>
<stop offset="0.7" stop-color="#8A2BE2"/>
<stop offset="1" stop-color="#4B0082"/>
<animateTransform 
    attributeName="gradientTransform" 
    type="translate" 
    values="0 3; 0 -0.25; 0 -0.25; 0 3" 
    keyTimes="0; 0.4; 0.6; 1" 
    dur="5s"
    keySplines="0.2 0.8 0.4 1; 0 0 1 1; 0.2 0.8 0.4 1"
    calcMode="spline"
    repeatCount="indefinite"/>
    </linearGradient>

<!-- 二进制文本渐变（超长版） -->
<linearGradient id="dynamic_LR_independent" x1="-3000%" y1="0" x2="3000%" y2="0">
    <stop offset="25%" stop-color="#FF1493"/>
    <stop offset="45%" stop-color="#FF1493"/>
    <stop offset="50%" stop-color="#8A2BE2"/>
    <stop offset="55%" stop-color="#FF1493"/>
    <stop offset="75%" stop-color="#FF1493"/>
    <animate attributeName="x1" values="-3100%; 50%; 50%; -3100%"
             keyTimes="0; 0.25; 0.6; 1"
             dur="5s"
             calcMode="spline"
             keySplines="0.2 0.8 0.4 1; 0 0 1 1; 0.2 0.8 0.4 1"
             repeatCount="indefinite"/>
    <animate attributeName="x2" values="3200%; 50%; 50%; 3200%"
             keyTimes="0; 0.25; 0.6; 1"
             dur="5s"
             calcMode="spline"
             keySplines="0.2 0.8 0.4 1; 0 0 1 1; 0.2 0.8 0.4 1"
             repeatCount="indefinite"/>
</linearGradient>

<!-- 下划线渐变（超长版） -->
<linearGradient id="dynamic_RL_independent" x1="-2000%" y1="0" x2="2000%" y2="0">
    <stop offset="25%" stop-color="#FF1493"/>
    <stop offset="45%" stop-color="#FF1493"/>
    <stop offset="50%" stop-color="#8A2BE2"/>
    <stop offset="55%" stop-color="#FF1493"/>
    <stop offset="75%" stop-color="#FF1493"/>
     <animate attributeName="x1" values="-2100%; 50%; 50%; -2100%"
             keyTimes="0; 0.25; 0.6; 1"
             dur="5s"
             calcMode="spline"
             keySplines="0.2 0.8 0.4 1; 0 0 1 1; 0.2 0.8 0.4 1"
             repeatCount="indefinite"/>
    <animate attributeName="x2" values="2200%; 50%; 50%; 2200%"
             keyTimes="0; 0.25; 0.6; 1"
             dur="5s"
             calcMode="spline"
             keySplines="0.2 0.8 0.4 1; 0 0 1 1; 0.2 0.8 0.4 1"
             repeatCount="indefinite"/>
</linearGradient>
</defs>

<path d="M102 50H39L70.5 0L102 50ZM50.8125 43.75H90.1875L70.5 12.5L50.8125 43.75Z" fill="url(#flow_TopDown)"

>
    <animate attributeName="opacity" href="#breathingOpacity"/>
</path>

<path d="M70 101H6L38 51L70 101ZM18 94.75H58L38 63.5L18 94.75Z" fill="url(#flow_Diagonal_Left)">
    <animate attributeName="opacity" href="#breathingOpacity"/>
</path>

<path d="M135 101H71L103 51L135 101ZM83 94.75H123L103 63.5L83 94.75Z" fill="url(#flow_Diagonal_Right)">
    <animate attributeName="opacity" href="#breathingOpacity"/>
</path>

<!-- 修改后的字母A路径，使用与三角形相同的颜色动画 -->
<path d="M73.0445 68.176L73.5885 71.184L64.4365 72.72L61.6845 78.768L58.9325 77.552L69.5885 54.256L72.3405 54.224L82.0685 74.672L79.3485 75.984L70.9645 58.448L65.9725 69.392L73.0445 68.176Z" fill="#A52A2A">
<animate attributeName="fill" values="#8A2BE2; #FF1493; #8A2BE2" keyTimes="0; 0.5; 1" dur="5s" repeatCount="indefinite"/>
<animate attributeName="opacity" values="1; 1.7; 1" keyTimes="0; 0.5; 1" dur="5s" repeatCount="indefinite"/>
</path>

<path d="M22.7801 111.12C22.2121 111.12 21.7121 110.988 21.2801 110.724C20.8481 110.452 20.5121 110.06 20.2721 109.548C20.0321 109.028 19.9121 108.396 19.9121 107.652C19.9121 106.9 20.0321 106.272 20.2721 105.768C20.5201 105.256 20.8601 104.868 21.2921 104.604C21.7241 104.34 22.2201 104.208 22.7801 104.208C23.3401 104.208 23.8361 104.34 24.2681 104.604C24.7001 104.868 25.0361 105.256 25.2761 105.768C25.5241 106.272 25.6481 106.9 25.6481 107.652C25.6481 108.396 25.5281 109.028 25.2881 109.548C25.0481 110.06 24.7121 110.452 24.2801 110.724C23.8481 110.988 23.3481 111.12 22.7801 111.12ZM22.7801 109.62C23.1241 109.62 23.4121 109.472 23.6441 109.176C23.8841 108.88 24.0041 108.372 24.0041 107.652C24.0041 106.94 23.8801 106.436 23.6321 106.14C23.3921 105.844 23.1081 105.696 22.7801 105.696C22.4441 105.696 22.1561 105.844 21.9161 106.14C21.6761 106.436 21.5561 106.94 21.5561 107.652C21.5561 108.372 21.6721 108.88 21.9041 109.176C22.1441 109.472 22.4361 109.62 22.7801 109.62ZM35.1903 109.524V105.912L34.1943 106.284C34.0743 106.316 34.0143 106.276 34.0143 106.164V104.928C34.0143 104.816 34.0743 104.736 34.1943 104.688L34.8543 104.448C34.9343 104.416 35.0343 104.388 35.1543 104.364C35.2743 104.34 35.3863 104.328 35.4903 104.328H35.9583C36.2383 104.328 36.4463 104.4 36.5823 104.544C36.7263 104.688 36.7983 104.888 36.7983 105.144V109.524H37.3143C37.8743 109.524 38.1543 109.788 38.1543 110.316V110.796C38.1543 110.932 38.0863 111 37.9503 111H34.1583C34.0543 111 34.0023 110.948 34.0023 110.844V109.68C34.0023 109.576 34.0543 109.524 34.1583 109.524H35.1903ZM49.0442 111.12C48.4762 111.12 47.9762 110.988 47.5442 110.724C47.1122 110.452 46.7762 110.06 46.5362 109.548C46.2962 109.028 46.1762 108.396 46.1762 107.652C46.1762 106.9 46.2962 106.272 46.5362 105.768C46.7842 105.256 47.1242 104.868 47.5562 104.604C47.9882 104.34 48.4842 104.208 49.0442 104.208C49.6042 104.208 50.1002 104.34 50.5322 104.604C50.9642 104.868 51.3002 105.256 51.5402 105.768C51.7882 106.272 51.9122 106.9 51.9122 107.652C51.9122 108.396 51.7922 109.028 51.5522 109.548C51.3122 110.06 50.9762 110.452 50.5442 110.724C50.1122 110.988 49.6122 111.12 49.0442 111.12ZM49.0442 109.62C49.3882 109.62 49.6762 109.472 49.9082 109.176C50.1482 108.88 50.2682 108.372 50.2682 107.652C50.2682 106.94 50.1442 106.436 49.8962 106.14C49.6562 105.844 49.3722 105.696 49.0442 105.696C48.7082 105.696 48.4202 105.844 48.1802 106.14C47.9402 106.436 47.8202 106.94 47.8202 107.652C47.8202 108.372 47.9362 108.88 48.1682 109.176C48.4082 109.472 48.7002 109.62 49.0442 109.62ZM63.3481 111.12C62.7801 111.12 62.2801 110.988 61.8481 110.724C61.4161 110.452 61.0801 110.06 60.8401 109.548C60.6001 109.028 60.4801 108.396 60.4801 107.652C60.4801 106.9 60.6001 106.272 60.8401 105.768C61.0881 105.256 61.4281 104.868 61.8601 104.604C62.2921 104.34 62.7881 104.208 63.3481 104.208C63.9081 104.208 64.4041 104.34 64.8361 104.604C65.2681 104.848 65.6041 105.256 65.8441 105.768C66.0921 106.272 66.2161 106.9 66.2161 107.652C66.2161 108.396 66.0961 109.028 65.8561 109.548C65.6161 110.06 65.2801 110.452 64.8481 110.724C64.4161 110.988 63.9161 111.12 63.3481 111.12ZM63.3481 109.62C63.6921 109.62 63.9801 109.472 64.2121 109.176C64.4521 108.88 64.5721 108.372 64.5721 107.652C64.5721 106.94 64.4481 106.436 64.2001 106.14C63.9601 105.844 63.6761 105.696 63.3481 105.696C63.0121 105.696 62.7241 105.844 62.4841 106.14C62.2441 106.436 62.1241 106.94 62.1241 107.652C62.1241 108.372 62.2401 108.88 62.4721 109.176C62.7121 109.472 63.0041 109.62 63.3481 109.62ZM77.652 111.12C77.084 111.12 76.584 110.988 76.152 110.724C75.72 110.452 75.384 110.06 75.144 109.548C74.904 109.028 74.784 108.396 74.784 107.652C74.784 106.9 74.904 106.272 75.144 105.768C75.392 105.256 75.732 104.868 76.164 104.604C76.596 104.34 77.092 104.208 77.652 104.208C78.212 104.208 78.708 104.34 79.14 104.604C79.572 104.868 79.908 105.256 80.148 105.768C80.396 106.272 80.52 106.9 80.52 107.652C80.52 108.396 80.4 109.028 80.16 109.548C79.92 110.06 79.584 110.452 79.152 110.724C78.72 110.988 78.22 111.12 77.652 111.12ZM77.652 109.62C77.996 109.62 78.284 109.472 78.516 109.176C78.756 108.88 78.876 108.372 78.876 107.652C78.876 106.94 78.752 106.436 78.504 106.14C78.264 105.844 77.98 105.696 77.652 105.696C77.316 105.696 77.028 105.844 76.788 106.14C76.548 106.436 76.428 106.94 76.428 107.652C76.428 108.372 76.544 108.88 76.776 109.176C77.016 109.472 77.308 109.62 77.652 109.62ZM91.9559 111.12C91.3879 111.12 90.8879 110.988 90.4559 110.724C90.0239 110.452 89.6879 110.06 89.4479 109.548C89.2079 109.028 89.0879 108.396 89.0879 107.652C89.0879 106.9 89.2079 106.272 89.4479 105.768C89.6959 105.256 90.0359 104.868 90.4679 104.604C90.8999 104.34 91.3959 104.208 91.9559 104.208C92.5159 104.208 93.0119 104.34 93.4439 104.604C93.8759 104.868 94.2119 105.256 94.4519 105.768C94.6999 106.272 94.8239 106.9 94.8239 107.652C94.8239 108.396 94.7039 109.028 94.4639 109.548C94.2239 110.06 93.8879 110.452 93.4559 110.724C93.0239 110.988 92.5239 111.12 91.9559 111.12ZM91.9559 109.62C92.2999 109.62 92.5879 109.472 92.8199 109.176C93.0599 108.88 93.1799 108.372 93.1799 107.652C93.1799 106.94 93.0559 106.436 92.8079 106.14C92.5679 105.844 92.2839 105.696 91.9559 105.696C91.6199 105.696 91.3319 105.844 91.0919 106.14C90.8519 106.436 90.7319 106.94 90.7319 107.652C90.7319 108.372 90.8479 108.88 91.0799 109.176C91.3199 109.472 91.6119 109.62 91.9559 109.62ZM104.366 109.524V105.912L103.37 106.284C103.25 106.316 103.19 106.276 103.19 106.164V104.928C103.19 104.816 103.25 104.736 103.37 104.688L104.03 104.448C104.11 104.416 104.21 104.388 104.33 104.364C104.45 104.34 104.562 104.328 104.666 104.328H105.134C105.414 104.328 105.622 104.4 105.758 104.544C105.902 104.688 105.974 104.888 105.974 105.144V109.524H106.49C107.05 109.524 107.33 109.788 107.33 110.316V110.796C107.33 110.932 107.262 111 107.126 111H103.334C103.23 111 103.178 110.948 103.178 110.844V109.68C103.178 109.576 103.23 109.524 103.334 109.524H104.366ZM118.22 111.12C117.652 111.12 117.152 110.988 116.72 110.724C116.288 110.452 115.952 110.06 115.712 109.548C115.472 109.028 115.352 108.396 115.352 107.652C115.352 106.9 115.472 106.272 115.712 105.768C115.96 105.256 116.3 104.868 116.732 104.604C117.164 104.34 117.66 104.208 118.22 104.208C118.78 104.208 119.276 104.34 119.708 104.604C120.14 104.868 120.476 105.256 120.716 105.768C120.964 106.272 121.088 106.9 121.088 107.652C121.088 108.396 120.968 109.028 120.728 109.548C120.488 110.06 120.152 110.452 119.72 110.724C119.288 110.988 118.788 111.12 118.22 111.12ZM118.22 109.62C118.564 109.62 118.852 109.472 119.084 109.176C119.324 108.88 119.444 108.372 119.444 107.652C119.444 106.94 119.32 106.436 119.072 106.14C118.832 105.844 118.548 105.696 118.22 105.696C117.884 105.696 117.596 105.844 117.356 106.14C117.116 106.436 116.996 106.94 116.996 107.652C116.996 108.372 117.112 108.88 117.344 109.176C117.584 109.472 117.876 109.62 118.22 109.62Z" fill="url(#dynamic_LR_independent)">
    <animate attributeName="opacity" href="#breathingOpacity"/>
</path>

<path d="M0 114.625C0 114.875 0 115.125 0 115.375C2.35 115.417 4.7 115.456 7.05 115.494C28.2 115.831 49.35 116 70.5 116C91.65 116 112.8 115.831 133.95 115.494C136.3 115.456 138.65 115.417 141 115.375C141 115.125 141 114.875 141 114.625C138.65 114.583 136.3 114.544 133.95 114.506C112.8 114.169 91.65 114 70.5 114C49.35 114 28.2 114.169 7.05 114.506C4.7 114.544 2.35 114.583 0 114.625Z" fill="url(#dynamic_LR_independent)">
    <animate attributeName="opacity" href="#breathingOpacity"/>
</path>

<path d="M160.966 35.2344C161.318 35.3438 161.638 35.5 161.927 35.7031C162.216 35.9062 162.463 36.168 162.666 36.4883C162.869 36.8008 163.025 37.1719 163.134 37.6016C163.244 38.0312 163.298 38.5234 163.298 39.0781V39.9219C163.298 42.6406 161.939 44 159.22 44H150.021V27.1953H158.74C161.459 27.1953 162.818 28.5586 162.818 31.2852V31.5898C162.818 32.5352 162.666 33.3086 162.361 33.9102C162.064 34.5039 161.599 34.9453 160.966 35.2344ZM152.377 36.6758V41.6445H159.15C159.783 41.6445 160.24 41.4961 160.521 41.1992C160.802 40.9023 160.943 40.4375 160.943 39.8047V38.5039C160.943 37.8633 160.802 37.3984 160.521 37.1094C160.24 36.8203 159.783 36.6758 159.15 36.6758H152.377ZM152.377 29.5508V34.332H158.834C159.412 34.3086 159.826 34.1523 160.076 33.8633C160.334 33.5664 160.463 33.1133 160.463 32.5039V31.4023C160.463 30.7617 160.322 30.293 160.041 29.9961C159.759 29.6992 159.302 29.5508 158.67 29.5508H152.377ZM177.698 27.1953V44H175.296V27.1953H177.698ZM188.981 27.1953H202.423V29.5977H196.903V44H194.501V29.5977H188.981V27.1953ZM231.703 36.8047C231.375 36.8047 231.062 36.7422 230.766 36.6172C230.477 36.4844 230.223 36.3125 230.004 36.1016C229.785 35.8828 229.613 35.6289 229.488 35.3398C229.363 35.043 229.301 34.7305 229.301 34.4023V29.5977C229.301 29.2695 229.363 28.9609 229.488 28.6719C229.613 28.375 229.785 28.1211 230.004 27.9102C230.223 27.6914 230.477 27.5195 230.766 27.3945C231.062 27.2617 231.375 27.1953 231.703 27.1953H239.859C240.188 27.1953 240.496 27.2617 240.785 27.3945C241.082 27.5195 241.34 27.6914 241.559 27.9102C241.777 28.1211 241.949 28.375 242.074 28.6719C242.199 28.9609 242.262 29.2695 242.262 29.5977V31.7656H239.859V29.5977H231.703V34.4023H239.859C240.188 34.4023 240.496 34.4648 240.785 34.5898C241.082 34.7148 241.34 34.8867 241.559 35.1055C241.777 35.3242 241.949 35.582 242.074 35.8789C242.199 36.168 242.262 36.4766 242.262 36.8047V41.5977C242.262 41.9258 242.199 42.2383 242.074 42.5352C241.949 42.8242 241.777 43.0781 241.559 43.2969C241.34 43.5156 241.082 43.6875 240.785 43.8125C240.496 43.9375 240.188 44 239.859 44H231.469C231.141 44 230.828 43.9375 230.531 43.8125C230.242 43.6875 229.988 43.5156 229.77 43.2969C229.551 43.0781 229.379 42.8242 229.254 42.5352C229.129 42.2383 229.066 41.9258 229.066 41.5977V39.4414H231.469V41.5977H239.859V36.8047H231.703ZM254.998 27.1953H267.244V29.5977H257.4V34.4023H265.802V36.8047H257.4V41.5977H267.244V44H254.998V27.1953ZM277.8 27.1953H291.241V29.5977H285.722V44H283.32V29.5977H277.8V27.1953ZM302.524 27.1953H304.927V41.5977H314.524V27.1953H316.927V41.5977C316.927 41.9258 316.864 42.2383 316.739 42.5352C316.614 42.8242 316.442 43.0781 316.223 43.2969C316.005 43.5156 315.747 43.6875 315.45 43.8125C315.161 43.9375 314.852 44 314.524 44H304.927C304.598 44 304.286 43.9375 303.989 43.8125C303.7 43.6875 303.446 43.5156 303.227 43.2969C303.009 43.0781 302.837 42.8242 302.712 42.5352C302.587 42.2383 302.524 41.9258 302.524 41.5977V27.1953ZM329.651 44V27.1953H338.85C341.569 27.1953 342.928 28.5586 342.928 31.2852V33.6758C342.928 36.4023 341.569 37.7656 338.85 37.7656H332.053V44H329.651ZM332.053 35.3633H338.721C339.362 35.3633 339.823 35.2227 340.104 34.9414C340.385 34.6602 340.526 34.1992 340.526 33.5586V31.4023C340.526 30.7617 340.385 30.3008 340.104 30.0195C339.823 29.7383 339.362 29.5977 338.721 29.5977H332.053V35.3633Z" fill="url(#dynamic_RL_independent)">
    <animate attributeName="opacity" href="#breathingOpacity"/>
</path>

<path d="M167.608 58.2578L172.358 58.1578L172.458 68.6578L184.508 62.4078L186.708 66.6078L172.508 73.9078L172.708 91.8578L185.858 88.6578L187.008 93.2578L170.858 97.1578L168.008 94.8578L167.608 58.2578ZM149.958 59.5078L154.608 59.8078L154.008 68.5078L166.108 67.3578L166.608 72.0578L153.708 73.3078L152.558 91.1078L163.358 85.9078L165.358 90.1578L150.958 97.1078L147.558 94.8078L149.958 59.5078ZM226.204 71.5078V66.5578L217.604 66.2578L217.704 61.6078L226.254 61.8578L226.304 56.3578H230.954V62.0078L239.654 62.2578L239.554 66.9578L230.954 66.7078V71.4078L241.204 71.1578L241.354 75.8578L216.454 76.4078L216.354 71.7078L226.204 71.5078ZM199.404 62.1578L203.954 63.3578L202.604 68.7078L205.304 68.1578L205.054 58.4078L209.804 58.2578L210.004 67.2078L214.104 66.4078L215.054 71.0078L210.154 72.0078L210.354 81.6578L213.454 80.9578L214.454 85.5078L210.504 86.4078L210.804 98.5078L206.104 98.6578L205.804 87.5078L198.704 89.1078L197.704 84.4578L205.654 82.7078L205.404 73.0078L199.904 74.1078L197.154 71.2078L199.404 62.1578ZM238.154 94.0078L236.654 96.4078L229.654 99.0078L227.954 94.6078L233.354 92.6078L232.704 85.1578L215.404 84.6078L215.604 79.9078L232.304 80.4578L232.054 77.0078L236.804 76.6578L237.104 80.6078L240.804 80.7078L240.604 85.4078L237.454 85.3078L238.154 94.0078ZM222.404 86.0078L225.804 95.6578L221.354 97.2078L217.954 87.6078L222.404 86.0078ZM273.35 56.7578L273.55 61.4578L272.1 61.5078L270.8 71.8078L273.9 71.2078L274.8 75.8078L270.2 76.6578L270 78.5578L265.3 78.0078L265.35 77.5578L251.5 80.1078L250.6 75.5078L254.9 74.7078L253.6 62.1578L251.05 62.2078L250.85 57.5078L273.35 56.7578ZM277.9 69.6078L275.65 68.5578L277.6 64.2578L281.6 66.1078L284 63.8078L274.35 62.5078L275 57.8078L289.4 59.7578L290.75 63.8078L286.15 68.2078L291.85 70.8078L289.9 75.0578L282.5 71.7078L278.25 75.7578L275 72.3578L277.9 69.6078ZM259.55 73.8578L265.95 72.7078L267.35 61.7078L258.35 62.0078L258.4 62.5578L263.8 62.5078L263.85 67.2578L258.9 67.3078L259 68.5578L264.85 67.3078L265.8 71.9578L259.5 73.2578L259.55 73.8578ZM287.85 77.1078L288.3 81.8078L274.7 83.1578L274.5 87.2578L278 88.1578L282.3 83.0578L285.9 86.0578L283.05 89.4578L291 91.4578L289.8 96.0078L274.25 92.0078L273.9 98.6078L269.25 98.3578L269.45 94.4078L253 98.0078L252 93.3578L269.65 89.5578L269.7 89.0578L254.4 91.6078L253.6 87.0078L269.95 84.2078V83.6578L256.15 85.0078L255.75 80.3078L287.85 77.1078ZM325.596 57.2578L328.496 61.0078L326.146 62.8078L345.446 70.6578L343.696 75.0078L321.746 66.2078L306.946 77.6078L304.046 73.8578L325.596 57.2578ZM334.496 71.9578L335.196 76.6578L314.596 79.7578L313.846 75.1078L334.496 71.9578ZM313.546 95.2578L311.546 85.1078L313.696 82.2578L334.496 80.4578L337.046 83.2078L334.996 96.0078L332.546 98.0078L315.796 97.1578L313.546 95.2578ZM331.846 85.4578L316.746 86.7578L317.846 92.5078L330.696 93.2078L331.846 85.4578Z" fill="url(#dynamic_RL_independent)">
    <animate attributeName="opacity" href="#breathingOpacity"/>
</path>

</svg>